<?xml version="1.0" encoding="utf-8"?>
<!-- Generator: Adobe Illustrator 25.2.3, SVG Export Plug-In . SVG Version: 6.00 Build 0)  -->
<svg version="1.1" id="Layer_1" xmlns="http://www.w3.org/2000/svg" xmlns:xlink="http://www.w3.org/1999/xlink" x="0px" y="0px"
	 viewBox="0 0 273 40" style="enable-background:new 0 0 273 40;" xml:space="preserve">
<style type="text/css">
	.st0{fill:#F8F6E8;}
	.st1{fill:#6A6E2E;}
	.st2{fill:#F2EB54;}
</style>
<g>
	<path class="st0" d="M10.2,9.3H9.3L0.4,30h4.8l1.5-3.7h5.6l1.5,3.7h5.4L10.2,9.3z M8.4,22.1l1.2-2.8l1.1,2.8H8.4z"/>
	<polygon class="st0" points="30.6,25.4 30.6,10 25.9,10 25.9,30 39.5,30 39.5,25.4 	"/>
	<rect x="47.5" y="10" class="st0" width="4.7" height="19.9"/>
	<path class="st0" d="M72.1,20c-0.5-0.5-1-0.8-1.6-1.1c-0.5-0.3-1.1-0.5-1.7-0.8c-0.6-0.2-1.1-0.5-1.7-0.7c-0.5-0.2-0.9-0.5-1.2-0.8
		c-0.2-0.2-0.4-0.5-0.4-0.9c0-0.4,0.1-0.8,0.5-1.1c1.1-0.5,2.4-0.5,3.6,0c0.7,0.3,1.4,0.6,2.1,1l0.5,0.2l1.8-3.7l-0.4-0.3
		c-0.8-0.5-1.8-1-2.7-1.3c-1.3-0.4-2.6-0.6-3.9-0.6l0,0c-1.1,0-2.3,0.3-3.3,0.8c-0.9,0.5-1.7,1.2-2.3,2.1c-0.6,0.9-0.8,2-0.8,3.1
		c0,0.9,0.2,1.7,0.6,2.5c0.4,0.7,0.8,1.3,1.4,1.7c0.6,0.4,1.2,0.8,1.8,1.1c0.6,0.3,1.3,0.6,1.8,0.8c0.5,0.2,0.9,0.4,1.3,0.6
		c0.3,0.2,0.6,0.4,0.9,0.7c0.2,0.2,0.3,0.5,0.3,0.7c0,0.4-0.1,0.7-0.3,1c-0.3,0.3-0.6,0.4-0.9,0.5c-0.8,0.2-1.7,0.2-2.6,0
		c-1-0.3-2-0.8-2.8-1.4L61.6,24l-2.1,3.8l0.4,0.3c1.3,0.9,2.9,1.6,4.5,1.9c0.8,0.1,1.5,0.2,2.3,0.2c1.3,0,2.6-0.2,3.8-0.8
		c1-0.5,1.8-1.2,2.4-2.2c0.5-0.9,0.8-1.9,0.8-2.9c0-0.9-0.1-1.7-0.4-2.5C73,21.1,72.6,20.5,72.1,20z"/>
	<path class="st0" d="M92.2,20c-0.5-0.5-1-0.8-1.6-1.1c-0.5-0.3-1.1-0.5-1.7-0.8c-0.6-0.2-1.1-0.5-1.7-0.7c-0.5-0.2-0.9-0.5-1.2-0.8
		c-0.2-0.2-0.4-0.5-0.4-0.9c0-0.4,0.1-0.8,0.5-1.1c1.1-0.5,2.4-0.5,3.6,0c0.7,0.3,1.4,0.6,2.1,1l0.4,0.2l1.8-3.7l-0.4-0.2
		c-0.8-0.5-1.7-1-2.7-1.3c-1.3-0.4-2.6-0.6-3.9-0.6l0,0c-1.1,0-2.3,0.3-3.3,0.8c-0.9,0.5-1.7,1.2-2.2,2c-0.5,0.9-0.8,2-0.8,3.1
		c-0.1,1.7,0.7,3.3,2,4.3c0.6,0.4,1.2,0.8,1.8,1.1c0.6,0.3,1.2,0.6,1.8,0.8c0.5,0.2,0.9,0.4,1.3,0.6c0.3,0.2,0.6,0.4,0.9,0.7
		c0.2,0.2,0.3,0.5,0.3,0.7c0,0.4-0.1,0.7-0.3,1c-0.3,0.3-0.6,0.4-0.9,0.5c-0.8,0.2-1.7,0.2-2.6,0c-0.5-0.1-1.1-0.3-1.6-0.6
		c-0.5-0.2-0.9-0.5-1.4-0.8L81.8,24l-2.1,3.8l0.4,0.3c0.7,0.5,1.4,0.9,2.2,1.2c0.7,0.3,1.5,0.5,2.3,0.7c0.8,0.1,1.5,0.2,2.3,0.2
		c1.3,0,2.6-0.2,3.8-0.8c1-0.5,1.8-1.3,2.4-2.2c0.5-0.9,0.8-1.9,0.8-2.9c0-0.9-0.1-1.7-0.4-2.5C93.1,21.1,92.7,20.5,92.2,20z"/>
	<path class="st0" d="M109.1,9.3h-0.8l-9,20.7h4.8l1.5-3.7h5.6l1.5,3.7h5.4L109.1,9.3z M107.3,22.1l1.2-2.8l1.1,2.8H107.3z"/>
	<path class="st0" d="M173.5,16.1c-0.5-1.2-1.3-2.3-2.2-3.3c-0.9-0.9-2-1.7-3.3-2.2c-2.5-1.1-5.4-1.1-7.9,0
		c-1.2,0.5-2.3,1.3-3.2,2.2c-0.9,0.9-1.7,2-2.2,3.3c-0.5,1.2-0.8,2.6-0.8,3.9c0,2.7,1,5.3,2.9,7.2c0.9,0.9,2,1.7,3.2,2.2
		c2.5,1,5.3,1,7.8,0c1.2-0.5,2.3-1.3,3.3-2.2c0.9-0.9,1.7-2,2.2-3.2c0.5-1.2,0.8-2.6,0.8-3.9C174.3,18.7,174.1,17.4,173.5,16.1z
		 M169.5,20c0,1.5-0.5,2.8-1.5,3.9c-0.5,0.5-1,0.9-1.7,1.2c-1.3,0.6-2.8,0.6-4.2,0c-0.6-0.3-1.2-0.7-1.7-1.2
		c-0.5-0.5-0.9-1.1-1.2-1.8c-0.3-0.7-0.4-1.4-0.4-2.2c0-0.8,0.1-1.5,0.4-2.2c0.3-0.7,0.6-1.3,1.1-1.8c0.5-0.5,1.1-0.9,1.7-1.2
		c1.3-0.6,2.9-0.6,4.2,0c0.6,0.3,1.2,0.7,1.7,1.2c0.5,0.5,0.9,1.1,1.1,1.8C169.4,18.5,169.5,19.3,169.5,20L169.5,20z"/>
	<path class="st0" d="M198.7,16.6c-0.4-1.2-1-2.4-1.9-3.3c-0.9-1-2.1-1.9-3.4-2.4c-1.6-0.6-3.3-0.9-5.1-0.9h-6.2V30h7.1
		c1.3,0,2.6-0.2,3.8-0.7c1.2-0.4,2.3-1.1,3.2-2c0.9-0.9,1.7-1.9,2.2-3c0.5-1.3,0.8-2.6,0.8-4C199.4,19,199.2,17.8,198.7,16.6z
		 M194.5,20.1c0,0.8-0.1,1.6-0.4,2.3c-0.3,0.6-0.6,1.2-1.2,1.6c-0.5,0.4-1.2,0.8-1.8,1c-0.8,0.2-1.6,0.4-2.4,0.4H187V14.6h2.5
		c0.5,0,1,0.1,1.4,0.2c0.6,0.2,1.2,0.4,1.7,0.8c0.6,0.4,1,1,1.3,1.6C194.3,18.1,194.5,19.1,194.5,20.1L194.5,20.1z"/>
	<path class="st0" d="M223.8,16.6c-0.4-1.2-1-2.4-1.9-3.3c-0.9-1-2.1-1.9-3.4-2.4c-1.6-0.6-3.3-0.9-5.1-0.9h-6.2V30h7.1
		c1.3,0,2.6-0.2,3.8-0.7c1.2-0.4,2.3-1.1,3.2-2c0.9-0.9,1.7-1.9,2.2-3c0.5-1.3,0.8-2.6,0.8-4C224.3,19,224.1,17.8,223.8,16.6z
		 M219.5,20.1c0,0.8-0.1,1.6-0.4,2.3c-0.3,0.6-0.6,1.2-1.2,1.6c-0.5,0.4-1.2,0.8-1.8,1c-0.8,0.2-1.6,0.4-2.4,0.4H212V14.6h2.5
		c0.5,0,1,0.1,1.4,0.2c0.6,0.2,1.2,0.4,1.7,0.8c0.6,0.4,1,1,1.3,1.6C219.4,18.1,219.5,19.1,219.5,20.1z"/>
	<polygon class="st0" points="237,25.4 237,22.2 245.1,22.2 245.1,17.7 237,17.7 237,14.6 246.2,14.6 246.2,10 232.3,10 232.3,30 
		246.5,30 246.5,25.4 	"/>
	<polygon class="st0" points="267.9,10 267.9,20.8 255.4,9.3 254.6,9.3 254.6,30 259.3,30 259.3,19.4 271.8,30.7 272.6,30.7 
		272.6,10 	"/>
	<polygon class="st1" points="119.7,35 0.4,35 0.4,40 121.9,40 	"/>
	<polygon class="st2" points="129.8,0 132,5 272.6,5 272.6,0 	"/>
	<path class="st0" d="M146.1,20.7c-0.4-0.5-1-0.9-1.5-1.3c0.3-0.3,0.6-0.6,0.9-0.9c0.7-0.9,1-2.1,1-3.2c0.1-1.6-0.7-3.1-2-4
		c-1.5-0.9-3.2-1.4-5-1.3h-6.1V30h6.9c0.9,0,1.7-0.1,2.6-0.3c0.8-0.2,1.6-0.5,2.3-1c0.7-0.5,1.3-1.1,1.7-1.9
		c0.4-0.9,0.6-1.9,0.6-2.8C147.3,22.7,146.9,21.5,146.1,20.7z M141.5,16.1c0,0.4-0.1,0.9-0.4,1.2c-0.3,0.4-0.8,0.5-1.3,0.5H138v-3.2
		h1.5c0.5,0,1,0.1,1.5,0.4C141.4,15.3,141.5,15.7,141.5,16.1L141.5,16.1z M139.7,22.4c0.5,0,1,0,1.4,0.2c0.4,0.1,0.7,0.2,1,0.5
		c0.2,0.2,0.3,0.6,0.3,0.9c0,0.3-0.1,0.6-0.3,0.9c-0.2,0.3-0.5,0.4-0.8,0.5c-0.4,0.1-0.9,0.2-1.3,0.2H138v-3.1L139.7,22.4z
		 M134.3,29V11h0.2l2.5,5.7v2h0.9l1.1,2.6h-2v5.1h2.9c0.4,0,0.9-0.1,1.3-0.2l1,2.4c-0.7,0.2-1.4,0.3-2.1,0.3L134.3,29z"/>
</g>
</svg>
