<svg id="Layer_1" data-name="Layer 1" xmlns="http://www.w3.org/2000/svg" viewBox="0 0 300 100"><defs><style>.cls-1{fill:#f8f6e8;}.cls-2{fill:#6a6e2e;}.cls-3{fill:#f2eb54;}</style></defs><path class="cls-1" d="M21,36.4h-.86L11,57.52h4.86l1.57-3.79h5.76l1.49,3.79h5.52ZM19.18,49.52l1.2-2.89,1.14,2.89Z"/><polygon class="cls-1" points="41.82 52.84 41.82 37.16 37 37.16 37 57.52 50.92 57.52 50.92 52.84 41.82 52.84"/><rect class="cls-1" x="59.12" y="37.16" width="4.81" height="20.36"/><path class="cls-1" d="M84.2,47.36a6.68,6.68,0,0,0-1.61-1.16,14.67,14.67,0,0,0-1.72-.78,18,18,0,0,1-1.73-.74,4.42,4.42,0,0,1-1.26-.86,1.2,1.2,0,0,1-.4-.87,1.21,1.21,0,0,1,.5-1.09,4.29,4.29,0,0,1,3.64,0,14.41,14.41,0,0,1,2.17,1l.46.25,1.87-3.78L85.75,39A14.29,14.29,0,0,0,83,37.64a11.39,11.39,0,0,0-4-.59h0a8.07,8.07,0,0,0-3.37.86,5.92,5.92,0,0,0-2.31,2.15,6,6,0,0,0-.82,3.18,5.5,5.5,0,0,0,.57,2.59,5.38,5.38,0,0,0,1.48,1.76,9.61,9.61,0,0,0,1.86,1.15c.65.3,1.28.57,1.88.8a7.05,7.05,0,0,1,1.32.65,3.29,3.29,0,0,1,.9.75,1.17,1.17,0,0,1,.27.74,1.32,1.32,0,0,1-.32,1,2,2,0,0,1-.93.53,4.67,4.67,0,0,1-2.62,0A8.62,8.62,0,0,1,74,51.77l-.46-.33L71.38,55.3l.37.26a12.37,12.37,0,0,0,4.57,1.94,12.64,12.64,0,0,0,2.35.23,8.28,8.28,0,0,0,3.86-.83A6.05,6.05,0,0,0,85,54.67a5.72,5.72,0,0,0,.84-3,6.69,6.69,0,0,0-.44-2.55A5.39,5.39,0,0,0,84.2,47.36Z"/><path class="cls-1" d="M104.79,47.36a6.82,6.82,0,0,0-1.6-1.16,15.59,15.59,0,0,0-1.73-.78c-.59-.22-1.17-.47-1.73-.74a4.72,4.72,0,0,1-1.26-.86,1.22,1.22,0,0,1-.39-.87,1.2,1.2,0,0,1,.5-1.09,4.29,4.29,0,0,1,3.64,0,14.87,14.87,0,0,1,2.17,1l.45.25,1.88-3.78-.37-.25a14.1,14.1,0,0,0-2.72-1.36,11.39,11.39,0,0,0-4-.59h0a8,8,0,0,0-3.37.86A6,6,0,0,0,94,40.06a6.09,6.09,0,0,0-.82,3.18,5.18,5.18,0,0,0,2.05,4.35,10,10,0,0,0,1.87,1.15c.64.3,1.27.57,1.88.8a7.72,7.72,0,0,1,1.32.65,3.45,3.45,0,0,1,.9.75,1.17,1.17,0,0,1,.27.74,1.37,1.37,0,0,1-.32,1,2,2,0,0,1-.94.53,4.67,4.67,0,0,1-2.62,0A8.22,8.22,0,0,1,96,52.61a8.61,8.61,0,0,1-1.41-.84l-.45-.33L92,55.3l.38.26a12.39,12.39,0,0,0,2.22,1.22,12.26,12.26,0,0,0,2.35.72,12.62,12.62,0,0,0,2.34.23,8.29,8.29,0,0,0,3.87-.83,6.19,6.19,0,0,0,2.43-2.23,5.71,5.71,0,0,0,.83-3,6.9,6.9,0,0,0-.43-2.55A5.36,5.36,0,0,0,104.79,47.36Z"/><path class="cls-1" d="M122,36.4h-.86l-9.17,21.12h4.86l1.58-3.79h5.75l1.49,3.79h5.52Zm-1.84,13.12,1.2-2.89,1.14,2.89Z"/><path class="cls-1" d="M187.82,43.38a10.67,10.67,0,0,0-2.26-3.33,11.13,11.13,0,0,0-3.32-2.27,10.21,10.21,0,0,0-8.06,0,10.65,10.65,0,0,0-3.3,2.28,10.8,10.8,0,0,0-2.22,3.32,10.15,10.15,0,0,0-.8,4,10.27,10.27,0,0,0,3,7.33,10.39,10.39,0,0,0,3.31,2.23,10.5,10.5,0,0,0,8,0,10.69,10.69,0,0,0,3.32-2.22,10.34,10.34,0,0,0,2.27-3.31,10.12,10.12,0,0,0,.82-4A10,10,0,0,0,187.82,43.38Zm-4.13,4a5.88,5.88,0,0,1-1.55,4,5.24,5.24,0,0,1-1.69,1.21,5.57,5.57,0,0,1-4.28,0,5.43,5.43,0,0,1-1.76-1.21,5.65,5.65,0,0,1-1.18-1.82,5.8,5.8,0,0,1-.43-2.21,6,6,0,0,1,.42-2.27,5.49,5.49,0,0,1,1.16-1.82,5.28,5.28,0,0,1,1.73-1.22,5.54,5.54,0,0,1,4.28,0,5.2,5.2,0,0,1,1.71,1.22,5.62,5.62,0,0,1,1.17,1.83A6,6,0,0,1,183.69,47.37Z"/><path class="cls-1" d="M213.57,43.92a9.87,9.87,0,0,0-1.92-3.41,9.31,9.31,0,0,0-3.49-2.44,13.12,13.12,0,0,0-5.16-.91h-6.29V57.52H204a11.26,11.26,0,0,0,3.9-.68,9.94,9.94,0,0,0,3.27-2,9.6,9.6,0,0,0,2.24-3.11,10,10,0,0,0,.82-4.09A12,12,0,0,0,213.57,43.92Zm-4.34,3.5a6.23,6.23,0,0,1-.42,2.37,4.41,4.41,0,0,1-1.18,1.67,5.4,5.4,0,0,1-1.86,1,8,8,0,0,1-2.48.36h-1.76v-11h2.6a5.82,5.82,0,0,1,1.48.23,5.2,5.2,0,0,1,1.69.83,4.67,4.67,0,0,1,1.37,1.68A6.3,6.3,0,0,1,209.23,47.42Z"/><path class="cls-1" d="M239.11,43.92a9.87,9.87,0,0,0-1.92-3.41,9.31,9.31,0,0,0-3.49-2.44,13.12,13.12,0,0,0-5.16-.91h-6.29V57.52h7.24a11.26,11.26,0,0,0,3.9-.68,9.94,9.94,0,0,0,3.27-2,9.6,9.6,0,0,0,2.24-3.11,10,10,0,0,0,.82-4.09A12,12,0,0,0,239.11,43.92Zm-4.34,3.5a6.23,6.23,0,0,1-.42,2.37,4.41,4.41,0,0,1-1.18,1.67,5.4,5.4,0,0,1-1.86,1,8,8,0,0,1-2.48.36h-1.76v-11h2.6a5.82,5.82,0,0,1,1.48.23,5.2,5.2,0,0,1,1.69.83,4.67,4.67,0,0,1,1.37,1.68A6.3,6.3,0,0,1,234.77,47.42Z"/><polygon class="cls-1" points="252.61 52.84 252.61 49.65 260.92 49.65 260.92 44.97 252.61 44.97 252.61 41.84 262 41.84 262 37.16 247.79 37.16 247.79 57.52 262.37 57.52 262.37 52.84 252.61 52.84"/><polygon class="cls-1" points="284.17 37.16 284.24 48.18 271.42 36.4 270.57 36.4 270.57 57.52 275.44 57.52 275.37 46.71 288.21 58.31 289.01 58.31 289.01 37.16 284.17 37.16"/><polygon class="cls-2" points="132.83 62.68 10.99 62.67 10.99 67.77 135.05 67.78 132.83 62.68"/><polygon class="cls-3" points="143.17 26.93 145.38 32.03 289.01 32.03 289.01 26.93 143.17 26.93"/><path class="cls-1" d="M159.76,48.05a6.35,6.35,0,0,0-1.58-1.3,5.28,5.28,0,0,0,.89-.94,5.43,5.43,0,0,0,1-3.28,4.62,4.62,0,0,0-2-4.06,8.92,8.92,0,0,0-5.1-1.31h-6.18V57.52h7a10.93,10.93,0,0,0,2.62-.32,6.86,6.86,0,0,0,2.33-1.05,5.3,5.3,0,0,0,1.69-1.94,6.28,6.28,0,0,0,.62-2.9A4.77,4.77,0,0,0,159.76,48.05Zm-4.66-4.71a1.93,1.93,0,0,1-.43,1.24,1.5,1.5,0,0,1-1.28.5h-1.81V41.84h1.55a2.52,2.52,0,0,1,1.5.4A1.27,1.27,0,0,1,155.1,43.34Zm-1.84,6.42a6.26,6.26,0,0,1,1.45.16,2.18,2.18,0,0,1,1,.48,1.18,1.18,0,0,1,.31.91,1.38,1.38,0,0,1-.28.91,1.78,1.78,0,0,1-.85.55,4.44,4.44,0,0,1-1.37.2h-1.94V49.76Zm-5.5,6.76V38.16H148L150.58,44v2.08h.9l1.16,2.68h-2.06V54h2.94a6,6,0,0,0,1.31-.16l1.07,2.45a9.37,9.37,0,0,1-2.19.26Z"/></svg>